<svg id="Слой_1" data-name="Слой 1" xmlns="http://www.w3.org/2000/svg" viewBox="0 0 40 40"><defs><style>.cls-1{fill:#005a7d;}.cls-2{fill:#fff;}</style></defs><title>Yandex_logo_1</title><path class="cls-1" d="M20,0h0A20,20,0,0,1,40,20h0A20,20,0,0,1,20,40h0A20,20,0,0,1,0,20H0A20,20,0,0,1,20,0Z"/><path class="cls-2" d="M22.78,31.5H27V7.5H20.88c-6.12,0-9.33,3.14-9.33,7.77,0,3.7,1.76,5.87,4.91,8.12L11,31.5h4.52l6.08-9.08L19.49,21c-2.55-1.72-3.79-3.07-3.79-6,0-2.56,1.79-4.28,5.21-4.28h1.86V31.5Z"/></svg>